<svg width="70" height="70" viewBox="0 0 70 70" fill="none" xmlns="http://www.w3.org/2000/svg">
<g clip-path="url(#clip0_1051_904)">
<path d="M42.6976 20.942C43.7211 20.7941 45.596 21.1353 46.6148 21.4107C53.9567 23.3967 58.3956 30.9238 56.6021 38.3527C55.2599 43.9117 50.5074 48.2065 44.8263 48.9587C44.2457 49.0354 43.0434 49.1834 42.5204 49.0143C41.8483 48.7968 41.5542 48.0611 41.8029 47.4178C42.1754 46.4541 43.2239 46.7011 44.0516 46.6249C49.6666 46.1082 54.1326 41.4833 54.5611 35.8836C55.0391 29.635 50.348 23.9709 44.091 23.3886C43.5041 23.334 42.734 23.4505 42.2424 23.1314C41.3478 22.5508 41.6542 21.0933 42.6976 20.942Z" fill="#0A66C2"/>
<path d="M51.1383 30.4583C54.427 30.2137 56.8796 33.4778 55.7379 36.5775C54.5376 39.8366 50.2437 40.6028 47.9886 37.9507C45.5789 35.1167 47.4432 30.7329 51.1383 30.4583ZM51.1769 32.8744C48.5277 33.1786 48.8443 37.3099 51.5948 37.1514C54.452 36.9869 54.1435 32.5336 51.1769 32.8744Z" fill="#0A66C2"/>
<path d="M27.3023 20.942C26.2789 20.7941 24.404 21.1353 23.3851 21.4107C16.0428 23.3967 11.6039 30.9238 13.3974 38.3527C14.7396 43.9117 19.4921 48.2065 25.1732 48.9587C25.7538 49.0354 26.9561 49.1834 27.4791 49.0143C28.1512 48.7968 28.4453 48.0611 28.1966 47.4178C27.824 46.4541 26.7756 46.7011 25.9479 46.6249C20.3329 46.1082 15.8669 41.4833 15.4384 35.8836C14.9604 29.635 19.6514 23.9709 25.9085 23.3886C26.4954 23.334 27.2655 23.4505 27.7571 23.1314C28.6517 22.5508 28.3453 21.0933 27.3019 20.942H27.3023Z" fill="#0A66C2"/>
<path d="M18.8613 30.4602C15.5726 30.2157 13.12 33.4798 14.2617 36.5795C15.462 39.8385 19.7559 40.6048 22.011 37.9526C24.4207 35.1186 22.5564 30.7348 18.8613 30.4602ZM18.8231 32.8763C21.4723 33.1806 21.1557 37.3118 18.4053 37.1533C15.548 36.9889 15.8565 32.5356 18.8231 32.8763Z" fill="#0A66C2"/>
<path d="M20.943 27.3026C20.7951 26.2791 21.1362 24.4042 21.4117 23.3854C23.3977 16.043 30.9248 11.6041 38.3536 13.3976C43.9127 14.7398 48.2075 19.4923 48.9597 25.1734C49.0364 25.754 49.1843 26.9563 49.0152 27.4793C48.7978 28.1515 48.0621 28.4456 47.4188 28.1968C46.455 27.8243 46.7021 26.7758 46.6258 25.9481C46.1092 20.3332 41.4843 15.8671 35.8846 15.4387C29.636 14.9606 23.9719 19.6517 23.3896 25.9087C23.3349 26.4957 23.4515 27.2657 23.1324 27.7573C22.5517 28.652 21.0943 28.3456 20.943 27.3022V27.3026Z" fill="#0A66C2"/>
<path d="M30.4595 18.8603C30.2149 15.5716 33.4791 13.119 36.5788 14.2608C39.8378 15.461 40.604 19.7549 37.9519 22.01C35.1179 24.4197 30.7341 22.5554 30.4595 18.8603ZM32.8756 18.8222C33.1799 21.4713 37.3111 21.1548 37.1526 18.4043C36.9882 15.547 32.5348 15.8555 32.8756 18.8222Z" fill="#0A66C2"/>
<path d="M20.943 42.6971C20.7951 43.7206 21.1362 45.5955 21.4117 46.6143C23.3977 53.9562 30.9248 58.3951 38.3536 56.6016C43.9127 55.2594 48.2075 50.5069 48.9597 44.8258C49.0364 44.2452 49.1843 43.0429 49.0152 42.5199C48.7978 41.8478 48.0621 41.5537 47.4188 41.8024C46.455 42.175 46.7021 43.2234 46.6258 44.0511C46.1092 49.6661 41.4843 54.1321 35.8846 54.5606C29.636 55.0386 23.9719 50.3476 23.3896 44.0905C23.3349 43.5036 23.4515 42.7335 23.1324 42.2419C22.5517 41.3473 21.0943 41.6537 20.943 42.6971Z" fill="#0A66C2"/>
<path d="M30.4595 51.1376C30.2149 54.4263 33.4791 56.8788 36.5788 55.7371C39.8378 54.5369 40.604 50.2429 37.9519 47.9879C35.1179 45.5782 30.7341 47.4425 30.4595 51.1376ZM32.8756 51.1762C33.1799 48.527 37.3111 48.8435 37.1526 51.594C36.9882 54.4513 32.5348 54.1428 32.8756 51.1762Z" fill="#0A66C2"/>
</g>
<defs>
<clipPath id="clip0_1051_904">
<rect width="44" height="44" fill="white" transform="translate(13 13)"/>
</clipPath>
</defs>
</svg>
