<svg width="70" height="70" viewBox="0 0 70 70" fill="none" xmlns="http://www.w3.org/2000/svg">
<path fill-rule="evenodd" clip-rule="evenodd" d="M53.7079 29.5783C53.6827 28.2278 53.4082 24.2998 50.8006 21.519C50.3046 20.9909 49.1894 19.8061 47.3191 19.1385C46.4595 18.832 45.5471 18.6788 44.583 18.6788C43.8004 18.6788 43.0694 18.7774 42.3899 18.9746C43.3623 19.5867 44.0063 20.2446 44.3625 20.6092C47.5307 23.857 47.5972 28.571 47.5932 29.5426C48.7949 29.5494 49.9964 29.5565 51.1977 29.5636C52.0345 29.5685 52.8712 29.5735 53.7079 29.5783ZM43.1787 51.2667C43.8689 51.444 44.5917 51.5327 45.347 51.5327C46.2281 51.5327 47.0689 51.4022 47.8687 51.1414C48.0011 51.0982 49.0088 50.7611 50.102 49.9964C51.3872 48.6705 52.3492 47.3006 53.0624 46.0657C53.6352 44.4599 53.6853 42.9483 53.6721 42.2393C52.8345 42.2557 51.9969 42.2721 51.1593 42.2885C49.9517 42.3121 48.7442 42.3357 47.5366 42.3596C47.5753 43.0002 47.7599 47.1923 44.7881 50.0439C44.2644 50.5464 43.7025 50.9498 43.1787 51.2667ZM43.0072 54.6721C41.4908 54.6463 40.0706 54.4797 38.7478 54.1731C37.3028 53.8384 36.0053 53.3349 34.8562 52.6645C31.868 50.9891 29.5652 48.6213 27.9478 45.5631C26.3295 42.504 25.5208 38.9807 25.5208 34.9922C25.5208 31.9586 25.9926 29.1978 26.9371 26.7096C27.8808 24.2215 29.273 22.0635 31.1111 20.2366C32.7366 18.6277 34.538 17.4083 36.5165 16.5792C37.0392 16.3603 37.57 16.1697 38.1097 16.0082C38.5056 15.8897 40.2579 15.3825 42.8092 15.3342C42.957 15.3315 43.1255 15.3286 43.3121 15.3276C42.5114 14.995 41.6354 14.702 40.6872 14.4806C38.4805 13.9646 36.5277 13.9889 35.4889 14.0074C32.656 14.059 30.7102 14.6003 30.2707 14.7269C29.6714 14.8992 29.082 15.1027 28.5015 15.3364C26.3047 16.2213 24.3043 17.523 22.4994 19.2403C20.4584 21.1904 18.9125 23.4938 17.8647 26.1497C16.8159 28.8056 16.292 31.7526 16.292 34.9907C16.292 39.2481 17.19 43.0089 18.9869 46.2743C20.7829 49.5386 23.3399 52.066 26.6579 53.8544C27.9339 54.57 29.3747 55.1074 30.9791 55.4647C32.5826 55.822 34.315 56.0011 36.1745 56.0011C38.8432 56.0011 41.1971 55.3763 43.0072 54.6721Z" fill="#0A66C2"/>
</svg>
